<mxfile host="app.diagrams.net" modified="2022-11-08T16:29:01.092Z" agent="5.0 (Windows NT 10.0; Win64; x64) AppleWebKit/537.36 (KHTML, like Gecko) Chrome/105.0.0.0 Safari/537.36 OPR/91.0.4516.106" etag="jQ_KrroTwVfWRMXSqXok" version="20.5.3" type="github">
  <diagram id="C5RBs43oDa-KdzZeNtuy" name="Page-1">
    <mxGraphModel dx="1534" dy="860" grid="1" gridSize="10" guides="1" tooltips="1" connect="1" arrows="1" fold="1" page="1" pageScale="1" pageWidth="827" pageHeight="1169" math="0" shadow="0">
      <root>
        <mxCell id="WIyWlLk6GJQsqaUBKTNV-0" />
        <mxCell id="WIyWlLk6GJQsqaUBKTNV-1" parent="WIyWlLk6GJQsqaUBKTNV-0" />
        <mxCell id="_KTPVVqBxTzUOCGwY2Wl-18" value="" style="edgeStyle=orthogonalEdgeStyle;rounded=0;orthogonalLoop=1;jettySize=auto;html=1;fontColor=#FFFFFF;" edge="1" parent="WIyWlLk6GJQsqaUBKTNV-1" source="_KTPVVqBxTzUOCGwY2Wl-0" target="_KTPVVqBxTzUOCGwY2Wl-15">
          <mxGeometry relative="1" as="geometry">
            <Array as="points">
              <mxPoint x="290" y="70" />
              <mxPoint x="290" y="180" />
            </Array>
          </mxGeometry>
        </mxCell>
        <mxCell id="_KTPVVqBxTzUOCGwY2Wl-0" value="Symantec / Bluecoat Proxy SG 1 - Cesano" style="rounded=1;whiteSpace=wrap;html=1;fontSize=12;glass=0;strokeWidth=1;shadow=0;fillColor=#fff2cc;fontStyle=1;strokeColor=#d6b656;" vertex="1" parent="WIyWlLk6GJQsqaUBKTNV-1">
          <mxGeometry x="40" y="40" width="140" height="60" as="geometry" />
        </mxCell>
        <mxCell id="_KTPVVqBxTzUOCGwY2Wl-19" value="" style="edgeStyle=orthogonalEdgeStyle;rounded=0;orthogonalLoop=1;jettySize=auto;html=1;fontColor=#FFFFFF;" edge="1" parent="WIyWlLk6GJQsqaUBKTNV-1" source="_KTPVVqBxTzUOCGwY2Wl-2" target="_KTPVVqBxTzUOCGwY2Wl-15">
          <mxGeometry relative="1" as="geometry">
            <Array as="points">
              <mxPoint x="290" y="140" />
              <mxPoint x="290" y="180" />
            </Array>
          </mxGeometry>
        </mxCell>
        <mxCell id="_KTPVVqBxTzUOCGwY2Wl-2" value="Symantec / Bluecoat Proxy SG 2 - Cesano" style="rounded=1;whiteSpace=wrap;html=1;fontSize=12;glass=0;strokeWidth=1;shadow=0;fillColor=#fff2cc;fontStyle=1;strokeColor=#d6b656;" vertex="1" parent="WIyWlLk6GJQsqaUBKTNV-1">
          <mxGeometry x="40" y="110" width="140" height="60" as="geometry" />
        </mxCell>
        <mxCell id="_KTPVVqBxTzUOCGwY2Wl-28" value="" style="edgeStyle=orthogonalEdgeStyle;rounded=0;orthogonalLoop=1;jettySize=auto;html=1;fontColor=#FFFFFF;" edge="1" parent="WIyWlLk6GJQsqaUBKTNV-1" source="_KTPVVqBxTzUOCGwY2Wl-3" target="_KTPVVqBxTzUOCGwY2Wl-15">
          <mxGeometry relative="1" as="geometry">
            <mxPoint x="260" y="580" as="targetPoint" />
            <Array as="points">
              <mxPoint x="290" y="210" />
              <mxPoint x="290" y="180" />
            </Array>
          </mxGeometry>
        </mxCell>
        <mxCell id="_KTPVVqBxTzUOCGwY2Wl-3" value="Symantec / Bluecoat Proxy SG 3 - Rozzano" style="rounded=1;whiteSpace=wrap;html=1;fontSize=12;glass=0;strokeWidth=1;shadow=0;fillColor=#fff2cc;fontStyle=1;strokeColor=#d6b656;" vertex="1" parent="WIyWlLk6GJQsqaUBKTNV-1">
          <mxGeometry x="40" y="180" width="140" height="60" as="geometry" />
        </mxCell>
        <mxCell id="_KTPVVqBxTzUOCGwY2Wl-30" value="" style="edgeStyle=orthogonalEdgeStyle;rounded=0;orthogonalLoop=1;jettySize=auto;html=1;fontColor=#FFFFFF;" edge="1" parent="WIyWlLk6GJQsqaUBKTNV-1" source="_KTPVVqBxTzUOCGwY2Wl-4" target="_KTPVVqBxTzUOCGwY2Wl-15">
          <mxGeometry relative="1" as="geometry">
            <mxPoint x="260" y="650" as="targetPoint" />
            <Array as="points">
              <mxPoint x="290" y="280" />
              <mxPoint x="290" y="180" />
            </Array>
          </mxGeometry>
        </mxCell>
        <mxCell id="_KTPVVqBxTzUOCGwY2Wl-4" value="Symantec / Bluecoat Proxy SG 1 - Rozzano" style="rounded=1;whiteSpace=wrap;html=1;fontSize=12;glass=0;strokeWidth=1;shadow=0;fillColor=#fff2cc;fontStyle=1;strokeColor=#d6b656;" vertex="1" parent="WIyWlLk6GJQsqaUBKTNV-1">
          <mxGeometry x="40" y="250" width="140" height="60" as="geometry" />
        </mxCell>
        <mxCell id="_KTPVVqBxTzUOCGwY2Wl-52" value="" style="edgeStyle=orthogonalEdgeStyle;shape=link;rounded=0;orthogonalLoop=1;jettySize=auto;html=1;fontColor=#000000;" edge="1" parent="WIyWlLk6GJQsqaUBKTNV-1" source="_KTPVVqBxTzUOCGwY2Wl-8" target="_KTPVVqBxTzUOCGwY2Wl-14">
          <mxGeometry relative="1" as="geometry">
            <mxPoint x="260" y="580" as="targetPoint" />
            <Array as="points">
              <mxPoint x="280" y="580" />
              <mxPoint x="280" y="510" />
            </Array>
          </mxGeometry>
        </mxCell>
        <mxCell id="_KTPVVqBxTzUOCGwY2Wl-8" value="Check Point ( Lutech ) Rozzano&lt;br&gt;[10.79.224.14]" style="rounded=1;whiteSpace=wrap;html=1;fontSize=12;glass=0;strokeWidth=1;shadow=0;fillColor=#e1d5e7;fontStyle=1;strokeColor=#9673a6;" vertex="1" parent="WIyWlLk6GJQsqaUBKTNV-1">
          <mxGeometry x="40" y="550" width="140" height="60" as="geometry" />
        </mxCell>
        <mxCell id="_KTPVVqBxTzUOCGwY2Wl-50" value="" style="edgeStyle=orthogonalEdgeStyle;shape=link;rounded=0;orthogonalLoop=1;jettySize=auto;html=1;fontColor=#000000;" edge="1" parent="WIyWlLk6GJQsqaUBKTNV-1" source="_KTPVVqBxTzUOCGwY2Wl-12" target="_KTPVVqBxTzUOCGwY2Wl-14">
          <mxGeometry relative="1" as="geometry">
            <mxPoint x="270" y="510" as="targetPoint" />
          </mxGeometry>
        </mxCell>
        <mxCell id="_KTPVVqBxTzUOCGwY2Wl-12" value="Check Point ( Lutech ) Cesano&lt;br&gt;[10.79.192.10]" style="rounded=1;whiteSpace=wrap;html=1;fontSize=12;glass=0;strokeWidth=1;shadow=0;fillColor=#e1d5e7;fontStyle=1;strokeColor=#9673a6;" vertex="1" parent="WIyWlLk6GJQsqaUBKTNV-1">
          <mxGeometry x="40" y="480" width="140" height="60" as="geometry" />
        </mxCell>
        <mxCell id="_KTPVVqBxTzUOCGwY2Wl-26" value="" style="edgeStyle=orthogonalEdgeStyle;rounded=0;orthogonalLoop=1;jettySize=auto;html=1;fontColor=#FFFFFF;entryX=0.242;entryY=0.988;entryDx=0;entryDy=0;entryPerimeter=0;" edge="1" parent="WIyWlLk6GJQsqaUBKTNV-1" source="_KTPVVqBxTzUOCGwY2Wl-13" target="_KTPVVqBxTzUOCGwY2Wl-14">
          <mxGeometry relative="1" as="geometry" />
        </mxCell>
        <mxCell id="_KTPVVqBxTzUOCGwY2Wl-13" value="Check Point ( Sorint )&amp;nbsp;&lt;br&gt;[10.79.225.36]" style="rounded=1;whiteSpace=wrap;html=1;fontSize=12;glass=0;strokeWidth=1;shadow=0;fillColor=#e1d5e7;fontStyle=1;strokeColor=#9673a6;" vertex="1" parent="WIyWlLk6GJQsqaUBKTNV-1">
          <mxGeometry x="40" y="620" width="140" height="60" as="geometry" />
        </mxCell>
        <mxCell id="_KTPVVqBxTzUOCGwY2Wl-33" value="" style="edgeStyle=orthogonalEdgeStyle;rounded=0;orthogonalLoop=1;jettySize=auto;html=1;fontColor=#FFFFFF;" edge="1" parent="WIyWlLk6GJQsqaUBKTNV-1" source="_KTPVVqBxTzUOCGwY2Wl-14" target="_KTPVVqBxTzUOCGwY2Wl-57">
          <mxGeometry relative="1" as="geometry">
            <mxPoint x="500" y="510" as="targetPoint" />
          </mxGeometry>
        </mxCell>
        <mxCell id="_KTPVVqBxTzUOCGwY2Wl-14" value="MIRZELSENT01&lt;br&gt;( rsyslog )" style="shape=cube;whiteSpace=wrap;html=1;boundedLbl=1;backgroundOutline=1;darkOpacity=0.05;darkOpacity2=0.1;fontColor=#FFFFFF;fillColor=#004C99;fontStyle=1" vertex="1" parent="WIyWlLk6GJQsqaUBKTNV-1">
          <mxGeometry x="320" y="470" width="120" height="80" as="geometry" />
        </mxCell>
        <mxCell id="_KTPVVqBxTzUOCGwY2Wl-34" style="edgeStyle=orthogonalEdgeStyle;rounded=0;orthogonalLoop=1;jettySize=auto;html=1;fontColor=#FFFFFF;" edge="1" parent="WIyWlLk6GJQsqaUBKTNV-1" source="_KTPVVqBxTzUOCGwY2Wl-15" target="_KTPVVqBxTzUOCGwY2Wl-56">
          <mxGeometry relative="1" as="geometry">
            <mxPoint x="490" y="180" as="targetPoint" />
          </mxGeometry>
        </mxCell>
        <mxCell id="_KTPVVqBxTzUOCGwY2Wl-15" value="MICMESENT02&lt;br&gt;( syslog-ng )" style="shape=cube;whiteSpace=wrap;html=1;boundedLbl=1;backgroundOutline=1;darkOpacity=0.05;darkOpacity2=0.1;fontColor=#FFFFFF;fillColor=#004C99;fontStyle=1" vertex="1" parent="WIyWlLk6GJQsqaUBKTNV-1">
          <mxGeometry x="320" y="140" width="120" height="80" as="geometry" />
        </mxCell>
        <mxCell id="_KTPVVqBxTzUOCGwY2Wl-23" value="" style="edgeStyle=orthogonalEdgeStyle;rounded=0;orthogonalLoop=1;jettySize=auto;html=1;fontColor=#FFFFFF;shape=link;" edge="1" parent="WIyWlLk6GJQsqaUBKTNV-1" source="_KTPVVqBxTzUOCGwY2Wl-16" target="_KTPVVqBxTzUOCGwY2Wl-14">
          <mxGeometry relative="1" as="geometry">
            <mxPoint x="260" y="300" as="targetPoint" />
            <Array as="points">
              <mxPoint x="280" y="440" />
              <mxPoint x="280" y="510" />
            </Array>
          </mxGeometry>
        </mxCell>
        <mxCell id="_KTPVVqBxTzUOCGwY2Wl-16" value="Symantec / Broadcom DLP" style="rounded=1;whiteSpace=wrap;html=1;fontSize=12;glass=0;strokeWidth=1;shadow=0;fillColor=#ffe6cc;fontStyle=1;strokeColor=#d79b00;" vertex="1" parent="WIyWlLk6GJQsqaUBKTNV-1">
          <mxGeometry x="40" y="410" width="140" height="60" as="geometry" />
        </mxCell>
        <mxCell id="_KTPVVqBxTzUOCGwY2Wl-21" value="" style="edgeStyle=orthogonalEdgeStyle;rounded=0;orthogonalLoop=1;jettySize=auto;html=1;fontColor=#FFFFFF;" edge="1" parent="WIyWlLk6GJQsqaUBKTNV-1" source="_KTPVVqBxTzUOCGwY2Wl-17" target="_KTPVVqBxTzUOCGwY2Wl-14">
          <mxGeometry relative="1" as="geometry">
            <mxPoint x="260" y="230" as="targetPoint" />
          </mxGeometry>
        </mxCell>
        <mxCell id="_KTPVVqBxTzUOCGwY2Wl-17" value="OneIdentity / Balabit Safeguard" style="rounded=1;whiteSpace=wrap;html=1;fontSize=12;glass=0;strokeWidth=1;shadow=0;fillColor=#d5e8d4;fontStyle=1;strokeColor=#82b366;" vertex="1" parent="WIyWlLk6GJQsqaUBKTNV-1">
          <mxGeometry x="40" y="340" width="140" height="60" as="geometry" />
        </mxCell>
        <mxCell id="_KTPVVqBxTzUOCGwY2Wl-31" value="Azure&lt;br&gt;Log Analytics / Sentinel" style="shape=hexagon;perimeter=hexagonPerimeter2;whiteSpace=wrap;html=1;fixedSize=1;fillColor=#dae8fc;strokeColor=#6c8ebf;fontStyle=1" vertex="1" parent="WIyWlLk6GJQsqaUBKTNV-1">
          <mxGeometry x="670" y="310.00000000000006" width="110" height="73.33" as="geometry" />
        </mxCell>
        <mxCell id="_KTPVVqBxTzUOCGwY2Wl-36" style="edgeStyle=orthogonalEdgeStyle;rounded=0;orthogonalLoop=1;jettySize=auto;html=1;fontColor=#FFFFFF;" edge="1" parent="WIyWlLk6GJQsqaUBKTNV-1" source="_KTPVVqBxTzUOCGwY2Wl-35" target="_KTPVVqBxTzUOCGwY2Wl-31">
          <mxGeometry relative="1" as="geometry" />
        </mxCell>
        <mxCell id="_KTPVVqBxTzUOCGwY2Wl-37" value="&lt;font color=&quot;#000000&quot;&gt;RESTful API&lt;/font&gt;" style="edgeLabel;html=1;align=center;verticalAlign=middle;resizable=0;points=[];fontColor=#FFFFFF;rotation=-90;labelBackgroundColor=none;" vertex="1" connectable="0" parent="_KTPVVqBxTzUOCGwY2Wl-36">
          <mxGeometry x="0.3143" y="3" relative="1" as="geometry">
            <mxPoint x="-8" y="-142" as="offset" />
          </mxGeometry>
        </mxCell>
        <mxCell id="_KTPVVqBxTzUOCGwY2Wl-35" value="F5 Big-IP" style="rounded=1;whiteSpace=wrap;html=1;fontSize=12;glass=0;strokeWidth=1;shadow=0;fillColor=#f8cecc;fontStyle=1;strokeColor=#b85450;" vertex="1" parent="WIyWlLk6GJQsqaUBKTNV-1">
          <mxGeometry x="40" y="710" width="140" height="60" as="geometry" />
        </mxCell>
        <mxCell id="_KTPVVqBxTzUOCGwY2Wl-38" value="&lt;font color=&quot;#000000&quot;&gt;Syslog Port 514&lt;/font&gt;" style="edgeLabel;html=1;align=center;verticalAlign=middle;resizable=0;points=[];fontColor=#FFFFFF;rotation=0;labelBackgroundColor=none;" vertex="1" connectable="0" parent="WIyWlLk6GJQsqaUBKTNV-1">
          <mxGeometry x="230" y="640" as="geometry" />
        </mxCell>
        <mxCell id="_KTPVVqBxTzUOCGwY2Wl-41" value="&lt;font color=&quot;#000000&quot;&gt;Syslog Port 514&lt;/font&gt;" style="edgeLabel;html=1;align=center;verticalAlign=middle;resizable=0;points=[];fontColor=#FFFFFF;rotation=0;labelBackgroundColor=none;" vertex="1" connectable="0" parent="WIyWlLk6GJQsqaUBKTNV-1">
          <mxGeometry x="230" y="290" as="geometry" />
        </mxCell>
        <mxCell id="_KTPVVqBxTzUOCGwY2Wl-42" value="&lt;font color=&quot;#000000&quot;&gt;Syslog Port 514&lt;/font&gt;" style="edgeLabel;html=1;align=center;verticalAlign=middle;resizable=0;points=[];fontColor=#FFFFFF;rotation=0;labelBackgroundColor=none;" vertex="1" connectable="0" parent="WIyWlLk6GJQsqaUBKTNV-1">
          <mxGeometry x="230" y="220" as="geometry" />
        </mxCell>
        <mxCell id="_KTPVVqBxTzUOCGwY2Wl-43" value="&lt;font color=&quot;#000000&quot;&gt;Syslog Port 514&lt;/font&gt;" style="edgeLabel;html=1;align=center;verticalAlign=middle;resizable=0;points=[];fontColor=#FFFFFF;rotation=0;labelBackgroundColor=none;" vertex="1" connectable="0" parent="WIyWlLk6GJQsqaUBKTNV-1">
          <mxGeometry x="230" y="80" as="geometry" />
        </mxCell>
        <mxCell id="_KTPVVqBxTzUOCGwY2Wl-44" value="&lt;font color=&quot;#000000&quot;&gt;Syslog Port 514&lt;/font&gt;" style="edgeLabel;html=1;align=center;verticalAlign=middle;resizable=0;points=[];fontColor=#FFFFFF;rotation=0;labelBackgroundColor=none;" vertex="1" connectable="0" parent="WIyWlLk6GJQsqaUBKTNV-1">
          <mxGeometry x="230" y="150" as="geometry" />
        </mxCell>
        <mxCell id="_KTPVVqBxTzUOCGwY2Wl-47" value="&lt;font color=&quot;#000000&quot;&gt;Syslog Port 514&lt;/font&gt;" style="edgeLabel;html=1;align=center;verticalAlign=middle;resizable=0;points=[];fontColor=#FFFFFF;rotation=0;labelBackgroundColor=none;" vertex="1" connectable="0" parent="WIyWlLk6GJQsqaUBKTNV-1">
          <mxGeometry x="230" y="360" as="geometry" />
        </mxCell>
        <mxCell id="_KTPVVqBxTzUOCGwY2Wl-48" value="&lt;font color=&quot;#000000&quot;&gt;Syslog Port 514&lt;/font&gt;" style="edgeLabel;html=1;align=center;verticalAlign=middle;resizable=0;points=[];fontColor=#FFFFFF;rotation=0;labelBackgroundColor=none;" vertex="1" connectable="0" parent="WIyWlLk6GJQsqaUBKTNV-1">
          <mxGeometry x="230" y="430" as="geometry" />
        </mxCell>
        <mxCell id="_KTPVVqBxTzUOCGwY2Wl-53" value="&lt;font color=&quot;#000000&quot;&gt;Syslog Port 514&lt;/font&gt;" style="edgeLabel;html=1;align=center;verticalAlign=middle;resizable=0;points=[];fontColor=#FFFFFF;rotation=0;labelBackgroundColor=none;" vertex="1" connectable="0" parent="WIyWlLk6GJQsqaUBKTNV-1">
          <mxGeometry x="230" y="570" as="geometry" />
        </mxCell>
        <mxCell id="_KTPVVqBxTzUOCGwY2Wl-54" value="&lt;font color=&quot;#000000&quot;&gt;Syslog Port 514&lt;/font&gt;" style="edgeLabel;html=1;align=center;verticalAlign=middle;resizable=0;points=[];fontColor=#FFFFFF;rotation=0;labelBackgroundColor=none;" vertex="1" connectable="0" parent="WIyWlLk6GJQsqaUBKTNV-1">
          <mxGeometry x="230" y="500" as="geometry" />
        </mxCell>
        <mxCell id="_KTPVVqBxTzUOCGwY2Wl-64" style="edgeStyle=orthogonalEdgeStyle;rounded=0;orthogonalLoop=1;jettySize=auto;html=1;fontColor=#FFFFFF;" edge="1" parent="WIyWlLk6GJQsqaUBKTNV-1" source="_KTPVVqBxTzUOCGwY2Wl-56" target="_KTPVVqBxTzUOCGwY2Wl-31">
          <mxGeometry relative="1" as="geometry" />
        </mxCell>
        <mxCell id="_KTPVVqBxTzUOCGwY2Wl-56" value="&lt;b&gt;&lt;font color=&quot;#ffffff&quot;&gt;OMS&lt;br&gt;Agent&lt;/font&gt;&lt;/b&gt;" style="rhombus;whiteSpace=wrap;html=1;labelBackgroundColor=none;fontColor=#ffffff;fillColor=#647687;strokeColor=#314354;" vertex="1" parent="WIyWlLk6GJQsqaUBKTNV-1">
          <mxGeometry x="550" y="140" width="80" height="80" as="geometry" />
        </mxCell>
        <mxCell id="_KTPVVqBxTzUOCGwY2Wl-63" style="edgeStyle=orthogonalEdgeStyle;rounded=0;orthogonalLoop=1;jettySize=auto;html=1;fontColor=#FFFFFF;" edge="1" parent="WIyWlLk6GJQsqaUBKTNV-1" source="_KTPVVqBxTzUOCGwY2Wl-57" target="_KTPVVqBxTzUOCGwY2Wl-31">
          <mxGeometry relative="1" as="geometry">
            <Array as="points">
              <mxPoint x="590" y="347" />
            </Array>
          </mxGeometry>
        </mxCell>
        <mxCell id="_KTPVVqBxTzUOCGwY2Wl-57" value="&lt;b&gt;&lt;font color=&quot;#ffffff&quot;&gt;OMS&lt;br&gt;Agent&lt;/font&gt;&lt;/b&gt;" style="rhombus;whiteSpace=wrap;html=1;labelBackgroundColor=none;fontColor=#ffffff;fillColor=#647687;strokeColor=#314354;" vertex="1" parent="WIyWlLk6GJQsqaUBKTNV-1">
          <mxGeometry x="550" y="470" width="80" height="80" as="geometry" />
        </mxCell>
        <mxCell id="_KTPVVqBxTzUOCGwY2Wl-59" value="&lt;font color=&quot;#000000&quot;&gt;Syslog Port 25226&lt;/font&gt;" style="edgeLabel;html=1;align=center;verticalAlign=middle;resizable=0;points=[];fontColor=#FFFFFF;rotation=0;labelBackgroundColor=none;" vertex="1" connectable="0" parent="WIyWlLk6GJQsqaUBKTNV-1">
          <mxGeometry x="456" y="500" as="geometry">
            <mxPoint x="31" y="1" as="offset" />
          </mxGeometry>
        </mxCell>
        <mxCell id="_KTPVVqBxTzUOCGwY2Wl-60" value="&lt;font color=&quot;#000000&quot;&gt;Syslog Port 25226&lt;/font&gt;" style="edgeLabel;html=1;align=center;verticalAlign=middle;resizable=0;points=[];fontColor=#FFFFFF;rotation=0;labelBackgroundColor=none;" vertex="1" connectable="0" parent="WIyWlLk6GJQsqaUBKTNV-1">
          <mxGeometry x="486" y="170" as="geometry" />
        </mxCell>
        <mxCell id="_KTPVVqBxTzUOCGwY2Wl-66" value="&lt;font color=&quot;#000000&quot;&gt;SSL&lt;br&gt;&lt;/font&gt;" style="edgeLabel;html=1;align=center;verticalAlign=middle;resizable=0;points=[];fontColor=#FFFFFF;rotation=-90;labelBackgroundColor=none;" vertex="1" connectable="0" parent="WIyWlLk6GJQsqaUBKTNV-1">
          <mxGeometry x="580" y="400" as="geometry" />
        </mxCell>
        <mxCell id="_KTPVVqBxTzUOCGwY2Wl-68" value="&lt;font color=&quot;#000000&quot;&gt;SSL&lt;br&gt;&lt;/font&gt;" style="edgeLabel;html=1;align=center;verticalAlign=middle;resizable=0;points=[];fontColor=#FFFFFF;rotation=0;labelBackgroundColor=none;" vertex="1" connectable="0" parent="WIyWlLk6GJQsqaUBKTNV-1">
          <mxGeometry x="700" y="170" as="geometry">
            <mxPoint x="-1" y="3" as="offset" />
          </mxGeometry>
        </mxCell>
      </root>
    </mxGraphModel>
  </diagram>
</mxfile>
